<svg xmlns="http://www.w3.org/2000/svg" viewBox="0 0 278.26 358.07"><title>js-development</title><g id="Layer_2" data-name="Layer 2"><g id="Capa_1" data-name="Capa 1"><path d="M16.12,357.57a15.67,15.67,0,0,1-3-.3c-.22,0-.44-.11-.65-.18l-.32-.1C5.62,355.31.5,350,.5,344.79V19C.5,6.28,8.6.5,16.12.5H194.29A11.94,11.94,0,0,1,202.79,4l71.44,71.44c2.94,2.94,3.53,6.52,3.53,11.35v258c0,5.16-5.11,10.52-11.64,12.21-.11,0-.21.06-.32.09s-.43.13-.65.18a15.59,15.59,0,0,1-3,.3ZM13.78,342A2.31,2.31,0,0,0,15.12,344a2.88,2.88,0,0,0,1,.25h246a2.8,2.8,0,0,0,1-.26,2.3,2.3,0,0,0,1.32-2.08V253.2H13.78Zm250.71-102V87.22a8.47,8.47,0,0,1-1.91.23H193.75A18.78,18.78,0,0,1,198,99.23v24.55a11.79,11.79,0,0,0,11.78,11.78,6.64,6.64,0,1,1,0,13.28A11.79,11.79,0,0,0,198,160.62v24.55A18.93,18.93,0,0,1,179,204.09a6.64,6.64,0,1,1,0-13.28,5.64,5.64,0,0,0,5.63-5.64V160.62a25,25,0,0,1,8.24-18.42,25,25,0,0,1-8.24-18.42V99.23A5.64,5.64,0,0,0,179,93.59a6.64,6.64,0,1,1,0-13.28,18.73,18.73,0,0,1,11.77,4.2V15.68a8.33,8.33,0,0,1,.23-1.9H16.12c-2.23,0-2.34,4.32-2.34,5.18v221ZM254.17,74.17,204.09,24.09V74.17Z"/><path d="M194.29,1a11.48,11.48,0,0,1,8.15,3.37l4.73,4.73h0l58.34,58.35,8.36,8.36c2.81,2.8,3.38,6.28,3.38,11v258c0,5.14-5.16,10.14-11.27,11.72-.31.09-.61.2-.93.27a15.06,15.06,0,0,1-2.92.29h-246a15.06,15.06,0,0,1-2.92-.29c-.31-.07-.62-.18-.93-.27C6.16,354.93,1,349.93,1,344.79V19C1,6.62,8.83,1,16.12,1H194.29m-2.62,12.28H16.12c-2.64,0-2.84,4.35-2.84,5.68V240.43H265V86.81c0-.09,0-.13,0-.22a9.54,9.54,0,0,1-2.4.36H192.66a18.28,18.28,0,0,1,4.79,12.28v24.55a12.3,12.3,0,0,0,12.28,12.28,6.14,6.14,0,1,1,0,12.28,12.3,12.3,0,0,0-12.28,12.28v24.55A18.43,18.43,0,0,1,179,203.59a6.14,6.14,0,1,1,0-12.28,6.14,6.14,0,0,0,6.13-6.14V160.62a24.4,24.4,0,0,1,8.49-18.42,24.4,24.4,0,0,1-8.49-18.42V99.23A6.14,6.14,0,0,0,179,93.09a6.14,6.14,0,1,1,0-12.28,18.23,18.23,0,0,1,12.27,4.79V15.68a9.54,9.54,0,0,1,.36-2.4m11.92,61.39h51.79L203.59,22.89V74.67M16.12,344.79h246a3.37,3.37,0,0,0,1.22-.3A2.81,2.81,0,0,0,265,342V252.7H13.28V342a2.8,2.8,0,0,0,1.63,2.54,3.27,3.27,0,0,0,1.21.3M194.29,0H16.12a15.45,15.45,0,0,0-11,4.66C1.77,8.09,0,13,0,19V344.79c0,5.46,5.17,10.92,12,12.69l.29.09c.21.06.45.14.71.19a16.46,16.46,0,0,0,3.1.31h246a16.64,16.64,0,0,0,3.11-.31c.26-.05.49-.13.7-.19l.3-.09c6.84-1.77,12-7.23,12-12.69v-258c0-5-.61-8.65-3.68-11.7l-8.35-8.35L207.88,8.4l-4.74-4.74A12.44,12.44,0,0,0,194.29,0Zm-180,239.43V19c0-1.74.39-4.68,1.84-4.68H190.43a8.8,8.8,0,0,0-.12,1.4V83.5A19.23,19.23,0,0,0,179,79.81a7.14,7.14,0,1,0,0,14.28,5.14,5.14,0,0,1,5.13,5.14v24.55a25.5,25.5,0,0,0,8,18.42,25.5,25.5,0,0,0-8,18.42v24.55a5.14,5.14,0,0,1-5.13,5.14,7.14,7.14,0,1,0,0,14.28,19.44,19.44,0,0,0,19.41-19.42V160.62a11.29,11.29,0,0,1,11.28-11.28,7.14,7.14,0,1,0,0-14.28,11.29,11.29,0,0,1-11.28-11.28V99.23A19.26,19.26,0,0,0,194.76,88h67.82a8.82,8.82,0,0,0,1.41-.12v151.6ZM204.59,73.67V25.3L253,73.67ZM14.28,253.7H264V342a1.8,1.8,0,0,1-1,1.62,2.4,2.4,0,0,1-.82.22h-246a2.46,2.46,0,0,1-.82-.22,1.8,1.8,0,0,1-1-1.62V253.7Z"/><path d="M107.77,333.44a29.41,29.41,0,0,1-4.4-.39,37.88,37.88,0,0,1-5.19-1.19c-1.78-.54-3.5-1.15-5.12-1.82a18.87,18.87,0,0,1-4.23-2.33l-.37-.27,4.81-7.63.43.3A11.73,11.73,0,0,0,96,321.27c1,.4,2.11.78,3.36,1.16s2.47.67,3.82.95a18.08,18.08,0,0,0,3.67.41,12.42,12.42,0,0,0,6.82-1.64c1.61-1,2.48-2.87,2.59-5.44V268.9h11.24v48.68a15.93,15.93,0,0,1-1.66,7.58,13.73,13.73,0,0,1-4.44,5,17.7,17.7,0,0,1-6.35,2.6A37.19,37.19,0,0,1,107.77,333.44Z"/><path d="M127,269.4v48.18a15.48,15.48,0,0,1-1.6,7.35,13.26,13.26,0,0,1-4.28,4.78,17,17,0,0,1-6.17,2.51,35.37,35.37,0,0,1-7.17.72,29.53,29.53,0,0,1-4.33-.38,37.44,37.44,0,0,1-5.12-1.18q-2.64-.79-5.07-1.8a18.68,18.68,0,0,1-4.12-2.27l4.28-6.79a12.56,12.56,0,0,0,2.4,1.21c1,.42,2.16.81,3.4,1.18s2.51.68,3.86,1a18.51,18.51,0,0,0,3.77.42,13,13,0,0,0,7.1-1.72c1.76-1.14,2.69-3.1,2.81-5.83V269.4H127m1-1H115.75v48.34c-.11,2.38-.88,4-2.36,5a12,12,0,0,1-6.55,1.56,17.82,17.82,0,0,1-3.57-.4c-1.34-.28-2.61-.6-3.78-.94s-2.32-.75-3.31-1.14A12.32,12.32,0,0,1,94,319.7l-.86-.6-.55.88-4.28,6.8-.49.78.73.55a19.23,19.23,0,0,0,4.34,2.39A53.92,53.92,0,0,0,98,332.34a37.73,37.73,0,0,0,5.26,1.2,29.32,29.32,0,0,0,4.48.4,36.7,36.7,0,0,0,7.37-.74,18.06,18.06,0,0,0,6.53-2.66,14.28,14.28,0,0,0,4.6-5.14,16.46,16.46,0,0,0,1.72-7.82V268.4Z"/><path d="M157.2,333.35c-1.3,0-2.72-.08-4.2-.22a32.63,32.63,0,0,1-4.39-.72,22.47,22.47,0,0,1-4.24-1.42,13.38,13.38,0,0,1-3.53-2.22l-.23-.2,2-8.16.58.33a16.78,16.78,0,0,0,2.89,1.26c1.16.4,2.37.79,3.71,1.17a36.73,36.73,0,0,0,3.81.87,20.88,20.88,0,0,0,3.52.33c3.27,0,5.8-.76,7.52-2.27s2.55-3.74,2.55-6.71a6.24,6.24,0,0,0-1.79-4.53,20.4,20.4,0,0,0-4.71-3.56c-1.87-1.06-3.91-2.12-6.22-3.26a38.65,38.65,0,0,1-6.38-3.91,20.68,20.68,0,0,1-5-5.37,14.31,14.31,0,0,1-2-7.82,17.32,17.32,0,0,1,1.57-7.52,16.58,16.58,0,0,1,4.19-5.58,18.66,18.66,0,0,1,6.13-3.5,22.46,22.46,0,0,1,7.34-1.2,45.58,45.58,0,0,1,7.89.72,17.7,17.7,0,0,1,6.56,2.38l.36.24-.18.39c-.33.74-.73,1.53-1.18,2.41l-1.26,2.44c-.39.76-.73,1.39-1,1.9a6,6,0,0,1-.59,1l-.26.25-.31-.16a11.16,11.16,0,0,1-1.2-.7,8,8,0,0,0-1.69-.79,12.25,12.25,0,0,0-3-.56c-.48,0-1-.07-1.64-.07-.93,0-2,.06-3.22.15a8.22,8.22,0,0,0-3,.91,10.71,10.71,0,0,0-2.57,1.88,8.64,8.64,0,0,0-1.75,2.5,6.36,6.36,0,0,0-.62,2.61,7,7,0,0,0,1.79,5.07,18,18,0,0,0,4.66,3.51c1.89,1,4,2,6.17,3a33.65,33.65,0,0,1,6.35,3.62,18.88,18.88,0,0,1,5,5.39,15.82,15.82,0,0,1,2,8.36,16.52,16.52,0,0,1-1.43,6.71,17.64,17.64,0,0,1-4,5.69,19.35,19.35,0,0,1-6.37,3.93A24,24,0,0,1,157.2,333.35Z"/><path d="M160.32,269.64a44.37,44.37,0,0,1,7.8.71,17.38,17.38,0,0,1,6.38,2.31c-.33.73-.73,1.53-1.17,2.4s-.88,1.67-1.26,2.43-.73,1.39-1,1.89a8.33,8.33,0,0,1-.5.84,10.69,10.69,0,0,1-1.14-.67,8.54,8.54,0,0,0-1.8-.84,13.33,13.33,0,0,0-3.11-.59c-.51,0-1.07-.06-1.7-.06-.95,0-2,.05-3.25.15a8.66,8.66,0,0,0-3.2,1,11,11,0,0,0-2.69,2,9,9,0,0,0-1.84,2.65,6.67,6.67,0,0,0-.67,2.81,7.62,7.62,0,0,0,1.92,5.41,18.47,18.47,0,0,0,4.79,3.61q2.85,1.56,6.21,3a33.49,33.49,0,0,1,6.26,3.57,18.41,18.41,0,0,1,4.83,5.25,15.23,15.23,0,0,1,1.93,8.1,15.83,15.83,0,0,1-1.39,6.5,16.89,16.89,0,0,1-3.9,5.54,18.67,18.67,0,0,1-6.21,3.82,23.23,23.23,0,0,1-8.4,1.42c-1.34,0-2.73-.07-4.15-.2a32.72,32.72,0,0,1-4.32-.72,21.6,21.6,0,0,1-4.16-1.38,13,13,0,0,1-3.4-2.15l1.76-7.22a17.52,17.52,0,0,0,3,1.31c1.2.41,2.44.8,3.73,1.17a35.22,35.22,0,0,0,3.86.88,21.58,21.58,0,0,0,3.61.34q5.12,0,7.85-2.39c1.82-1.59,2.72-4,2.72-7.09a6.79,6.79,0,0,0-1.92-4.87,21,21,0,0,0-4.83-3.66q-2.9-1.64-6.26-3.27a37.59,37.59,0,0,1-6.29-3.86,20.19,20.19,0,0,1-4.87-5.24,13.75,13.75,0,0,1-1.92-7.55,16.88,16.88,0,0,1,1.52-7.31,16.26,16.26,0,0,1,4.07-5.41,17.89,17.89,0,0,1,6-3.4,21.67,21.67,0,0,1,7.18-1.18m0-1a23,23,0,0,0-7.51,1.23,19.12,19.12,0,0,0-6.28,3.59,17.21,17.21,0,0,0-4.33,5.74,18.07,18.07,0,0,0-1.61,7.74,14.83,14.83,0,0,0,2.08,8.09,21.17,21.17,0,0,0,5.11,5.5,38.94,38.94,0,0,0,6.46,4c2.3,1.13,4.33,2.19,6.2,3.24a19.89,19.89,0,0,1,4.59,3.48,5.78,5.78,0,0,1,1.65,4.18c0,2.86-.78,4.93-2.38,6.33s-4.05,2.15-7.19,2.15a21,21,0,0,1-3.44-.32,38.29,38.29,0,0,1-3.75-.86c-1.33-.38-2.54-.76-3.68-1.16a16.3,16.3,0,0,1-2.81-1.22l-1.16-.67-.31,1.3-1.76,7.22-.15.58.45.4a14.57,14.57,0,0,0,3.66,2.31,23.53,23.53,0,0,0,4.34,1.45,33.53,33.53,0,0,0,4.45.73c1.5.14,2.93.21,4.25.21a24.27,24.27,0,0,0,8.76-1.49,20,20,0,0,0,6.54-4,18.13,18.13,0,0,0,4.13-5.86,16.92,16.92,0,0,0,1.47-6.91,16.37,16.37,0,0,0-2.07-8.62,19.51,19.51,0,0,0-5.11-5.54,34.28,34.28,0,0,0-6.44-3.67c-2.19-1-4.26-2-6.13-3a17.83,17.83,0,0,1-4.53-3.42,6.57,6.57,0,0,1-1.66-4.73,5.73,5.73,0,0,1,.58-2.4,8,8,0,0,1,1.64-2.35,10.14,10.14,0,0,1,2.45-1.8,7.68,7.68,0,0,1,2.82-.85c1.18-.09,2.25-.14,3.16-.14.6,0,1.14,0,1.61.06a12.3,12.3,0,0,1,2.86.53,7.76,7.76,0,0,1,1.58.73,12.4,12.4,0,0,0,1.26.74l.64.31.5-.5a4.5,4.5,0,0,0,.67-1.06q.44-.78,1-1.92l.82-1.58.44-.85c.46-.91.86-1.71,1.2-2.44l.35-.79-.72-.46a18.14,18.14,0,0,0-6.74-2.46,45.64,45.64,0,0,0-8-.73Z"/><path d="M93.09,204.09a18.94,18.94,0,0,1-18.92-18.92V160.62a11.79,11.79,0,0,0-11.78-11.78,6.64,6.64,0,0,1,0-13.28,11.79,11.79,0,0,0,11.78-11.78V99.23A18.94,18.94,0,0,1,93.09,80.31a6.64,6.64,0,0,1,0,13.28,5.65,5.65,0,0,0-5.64,5.64v24.55a25,25,0,0,1-8.24,18.42,25,25,0,0,1,8.24,18.42v24.55a5.65,5.65,0,0,0,5.64,5.64,6.64,6.64,0,0,1,0,13.28Z"/><path d="M93.09,80.81a6.14,6.14,0,0,1,0,12.28A6.14,6.14,0,0,0,87,99.23v24.55a24.4,24.4,0,0,1-8.49,18.42A24.4,24.4,0,0,1,87,160.62v24.55a6.14,6.14,0,0,0,6.14,6.14,6.14,6.14,0,0,1,0,12.28,18.44,18.44,0,0,1-18.42-18.42V160.62a12.3,12.3,0,0,0-12.28-12.28,6.14,6.14,0,0,1,0-12.28,12.3,12.3,0,0,0,12.28-12.28V99.23A18.44,18.44,0,0,1,93.09,80.81m0-1A19.44,19.44,0,0,0,73.67,99.23v24.55a11.29,11.29,0,0,1-11.28,11.28,7.14,7.14,0,1,0,0,14.28,11.29,11.29,0,0,1,11.28,11.28v24.55a19.44,19.44,0,0,0,19.42,19.42,7.14,7.14,0,0,0,0-14.28A5.14,5.14,0,0,1,88,185.17V160.62a25.46,25.46,0,0,0-8-18.42,25.46,25.46,0,0,0,8-18.42V99.23a5.14,5.14,0,0,1,5.14-5.14,7.14,7.14,0,0,0,0-14.28Z"/><path d="M136.06,130.42a9.71,9.71,0,1,1,9.71-9.71A9.72,9.72,0,0,1,136.06,130.42Z"/><path d="M136.06,111.5a9.21,9.21,0,1,1-9.21,9.21,9.21,9.21,0,0,1,9.21-9.21m0-1a10.21,10.21,0,1,0,10.21,10.21,10.22,10.22,0,0,0-10.21-10.21Z"/><path d="M136.06,185.67a6.64,6.64,0,0,1-6.64-6.64V160.62a6.64,6.64,0,1,1,13.28,0V179A6.64,6.64,0,0,1,136.06,185.67Z"/><path d="M136.06,154.48a6.13,6.13,0,0,1,6.14,6.14V179a6.14,6.14,0,1,1-12.28,0V160.62a6.14,6.14,0,0,1,6.14-6.14m0-1a7.14,7.14,0,0,0-7.14,7.14V179a7.14,7.14,0,1,0,14.28,0V160.62a7.14,7.14,0,0,0-7.14-7.14Z"/></g></g></svg>